<?xml version="1.0" ?><svg data-name="Layer 1" id="Layer_1" viewBox="0 0 64 64" xmlns="http://www.w3.org/2000/svg"><defs><style>.cls-1{fill:#4fbe9f;}.cls-2{fill:#09816c;}</style></defs><title/><path class="cls-1" d="M10.08,20.42,31.6,30.78a.93.93,0,0,0,.8,0L53.92,20.42a.92.92,0,0,0,0-1.65L32.4,8.41a.93.93,0,0,0-.8,0L10.08,18.77a.92.92,0,0,0,0,1.65Zm0,0"/><path class="cls-2" d="M10.08,33,31.6,43.34a.93.93,0,0,0,.8,0L53.92,33a.91.91,0,0,0,0-1.64L50.5,29.7a2.52,2.52,0,0,0-2.24,0L35,36.1a6.87,6.87,0,0,1-5.92,0L15.75,29.69a2.61,2.61,0,0,0-2.25,0l-3.42,1.65a.91.91,0,0,0,0,1.64Zm0,0"/><path class="cls-2" d="M53.92,43.91,50.5,42.26a2.59,2.59,0,0,0-2.24,0L35,48.66a6.78,6.78,0,0,1-5.92,0l-13.29-6.4a2.61,2.61,0,0,0-2.25,0l-3.42,1.65a.91.91,0,0,0,0,1.64L31.6,55.91a.93.93,0,0,0,.8,0L53.92,45.55a.91.91,0,0,0,0-1.64Zm0,0"/></svg>